<svg width="21" height="21" viewBox="0 0 21 21" fill="none" xmlns="http://www.w3.org/2000/svg">
<g clip-path="url(#clip0)">
<path d="M10.3723 12.5403C10.3723 10.9898 9.63488 9.84379 8.11129 9.41423C9.22294 8.88483 9.80268 8.08276 9.80268 6.83519C9.80268 4.3753 7.96363 3.77542 5.84184 3.77542H0V16.1261H6.00544C8.25727 16.1261 10.3723 15.0497 10.3723 12.5403ZM2.72334 5.88379H5.27888C6.26133 5.88379 7.14562 6.15897 7.14562 7.29496C7.14562 8.34369 6.45765 8.76569 5.48443 8.76569H2.72334V5.88379ZM2.7225 14.0286V10.6274H5.69082C6.88973 10.6274 7.64817 11.1258 7.64817 12.3909C7.64817 13.6385 6.74291 14.0286 5.63461 14.0286H2.7225Z" fill="#C4C4C4"/>
<path d="M15.7696 16.3602C17.9124 16.3602 19.3001 15.3979 19.9679 13.3524H17.7932C17.5592 14.1159 16.5943 14.5194 15.846 14.5194C14.4021 14.5194 13.6436 13.6763 13.6436 12.2433H20.1147C20.3194 9.37564 18.722 6.93168 15.7688 6.93168C13.0345 6.93168 11.1787 8.98047 11.1787 11.6644C11.1787 14.4498 12.9372 16.3602 15.7696 16.3602ZM15.6924 8.78751C16.9299 8.78751 17.5525 9.51239 17.6565 10.6979H13.647C13.7284 9.52246 14.5111 8.78751 15.6924 8.78751Z" fill="#C4C4C4"/>
<path d="M13.1443 4.42395H18.1681V5.64048H13.1443V4.42395Z" fill="#C4C4C4"/>
</g>
<defs>
<clipPath id="clip0">
<rect width="20.1356" height="20.1356" fill="white"/>
</clipPath>
</defs>
</svg>
