<svg width="21" height="21" viewBox="0 0 21 21" fill="none" xmlns="http://www.w3.org/2000/svg">
<path d="M10.0678 0.86438C4.51635 0.86438 0 5.38078 0 10.9322C0 16.4836 4.51635 21 10.0678 21C15.6192 21 20.1356 16.4836 20.1356 10.9322C20.1356 5.38078 15.6192 0.86438 10.0678 0.86438ZM16.6286 5.61259C17.7588 7.00386 18.4547 8.75992 18.5125 10.6742C16.4189 10.2407 14.523 10.2916 12.8494 10.6198C12.5464 9.91109 12.2327 9.23593 11.9161 8.59784C13.7387 7.81265 15.3255 6.80977 16.6286 5.61259ZM15.4944 4.45991C14.2009 5.64061 12.7019 6.51481 11.167 7.16023C10.0404 5.10005 8.96255 3.54864 8.30594 2.667C8.87451 2.54587 9.46366 2.48088 10.0678 2.48088C12.1323 2.48088 14.0252 3.22598 15.4944 4.45991ZM6.67329 3.19495C7.16912 3.83745 8.35012 5.4462 9.61874 7.73506C6.43038 8.77382 3.33664 8.94884 1.85001 8.96511C2.46967 6.37655 4.28239 4.24804 6.67329 3.19495ZM1.62532 10.5857C1.64127 10.5857 1.65668 10.5858 1.67296 10.5858C2.70018 10.5858 4.5822 10.5167 6.79786 10.1127C8.06195 9.8822 9.26063 9.57194 10.3854 9.18743C10.6782 9.77099 10.9693 10.3866 11.2515 11.0318C9.67661 11.5388 8.3485 12.2684 7.29649 12.9928C5.53237 14.2076 4.29651 15.5555 3.62168 16.3888C2.37225 14.9153 1.61649 13.0109 1.61649 10.9322C1.61649 10.816 1.62058 10.7008 1.62532 10.5857ZM4.78652 17.5231C5.36749 16.7916 6.55 15.4601 8.26057 14.2918C9.42304 13.4978 10.6257 12.9079 11.8638 12.5207C12.5822 14.3827 13.1955 16.44 13.5611 18.6246C12.4955 19.1104 11.3134 19.3835 10.0678 19.3835C8.07068 19.3835 6.23446 18.6857 4.78652 17.5231ZM15.0483 17.7541C14.6714 15.7478 14.1094 13.8614 13.4597 12.1373C15.0579 11.8677 16.7096 11.9233 18.4061 12.3044C18.0402 14.5341 16.7995 16.4721 15.0483 17.7541Z" fill="#C4C4C4"/>
</svg>
