<svg width="126" height="126" viewBox="0 0 126 126" fill="none" xmlns="http://www.w3.org/2000/svg">
<path d="M107.881 107.881L105.395 75.0635L102.909 75.3122L105.147 104.898L75.3123 102.909L75.0637 105.395L107.881 107.881Z" fill="#231F20"/>
<path d="M31.804 45.9752L75.3123 89.4834C79.2902 93.4613 85.7543 93.4613 89.7322 89.4834C93.7101 85.5055 93.7101 79.0415 89.7322 75.0636" stroke="#231F20" stroke-width="2.3" stroke-miterlimit="10"/>
<path d="M24.594 53.1851L75.3122 103.655C79.2901 99.6768 79.2901 93.2127 75.3122 89.2348" stroke="#231F20" stroke-width="2.3" stroke-miterlimit="10"/>
<path d="M46.224 31.8039L89.4837 75.0635C93.4616 79.0414 99.9257 79.0414 103.904 75.0635L52.6881 24.0967" stroke="#231F20" stroke-width="2.3" stroke-miterlimit="10"/>
<path d="M105.892 96.942L96.9421 105.644" stroke="#231F20" stroke-width="2.3" stroke-miterlimit="10"/>
<path d="M24.0968 52.6878L52.688 24.0967L48.7101 20.1188C47.2184 18.6271 44.9808 18.6271 43.7377 20.1188L20.1189 43.7376C18.6272 45.2293 18.6272 47.4669 20.1189 48.7099L24.0968 52.6878Z" stroke="#231F20" stroke-width="2.3" stroke-miterlimit="10"/>
</svg>
