<svg width="21" height="21" viewBox="0 0 21 21" fill="none" xmlns="http://www.w3.org/2000/svg">
<g clip-path="url(#clip0)">
<path d="M20.1159 6.35212C20.0687 5.28224 19.8957 4.54671 19.6479 3.90936C19.3922 3.23283 18.9989 2.62713 18.4835 2.12361C17.98 1.61225 17.3703 1.21491 16.7016 0.963226C16.0606 0.715385 15.3289 0.542372 14.259 0.495201C13.1811 0.444035 12.8389 0.432203 10.1052 0.432203C7.37138 0.432203 7.02919 0.444035 5.95532 0.491206C4.88543 0.538377 4.1499 0.711543 3.51271 0.959231C2.83602 1.21491 2.23032 1.60826 1.7268 2.12361C1.21545 2.62713 0.818259 3.23682 0.566423 3.90552C0.318582 4.54671 0.145569 5.27825 0.0983978 6.34813C0.0472316 7.426 0.0354004 7.76818 0.0354004 10.502C0.0354004 13.2358 0.0472316 13.5779 0.0944029 14.6518C0.141574 15.7217 0.31474 16.4572 0.562581 17.0946C0.818259 17.7711 1.21545 18.3768 1.7268 18.8803C2.23032 19.3917 2.84002 19.789 3.50871 20.0407C4.1499 20.2886 4.88144 20.4616 5.95147 20.5087C7.0252 20.5561 7.36753 20.5677 10.1013 20.5677C12.8351 20.5677 13.1773 20.5561 14.2512 20.5087C15.321 20.4616 16.0566 20.2886 16.6938 20.0407C18.047 19.5175 19.1169 18.4476 19.64 17.0946C19.8877 16.4534 20.0609 15.7217 20.1081 14.6518C20.1552 13.5779 20.1671 13.2358 20.1671 10.502C20.1671 7.76818 20.1631 7.426 20.1159 6.35212ZM18.3027 14.5731C18.2593 15.5565 18.0942 16.0875 17.9565 16.4416C17.6181 17.3188 16.9219 18.015 16.0447 18.3533C15.6907 18.491 15.1559 18.6561 14.1763 18.6993C13.1143 18.7466 12.7958 18.7583 10.1092 18.7583C7.42254 18.7583 7.10003 18.7466 6.04182 18.6993C5.05845 18.6561 4.52743 18.491 4.17341 18.3533C3.73688 18.192 3.33954 17.9363 3.01702 17.6019C2.68268 17.2754 2.427 16.8821 2.26566 16.4455C2.12799 16.0915 1.96281 15.5565 1.91964 14.5771C1.87231 13.5151 1.86064 13.1964 1.86064 10.5098C1.86064 7.82319 1.87231 7.50067 1.91964 6.44262C1.96281 5.45925 2.12799 4.92823 2.26566 4.57421C2.427 4.13753 2.68268 3.74034 3.02102 3.41767C3.34738 3.08332 3.74073 2.82764 4.17741 2.66646C4.53142 2.52879 5.06644 2.36361 6.04582 2.32028C7.10786 2.27311 7.42654 2.26128 10.113 2.26128C12.8036 2.26128 13.1221 2.27311 14.1803 2.32028C15.1637 2.36361 15.6947 2.52879 16.0487 2.66646C16.4853 2.82764 16.8826 3.08332 17.2051 3.41767C17.5395 3.74418 17.7951 4.13753 17.9565 4.57421C18.0942 4.92823 18.2593 5.46309 18.3027 6.44262C18.3498 7.50467 18.3617 7.82319 18.3617 10.5098C18.3617 13.1964 18.3498 13.5111 18.3027 14.5731Z" fill="#C4C4C4"/>
<path d="M10.1052 5.32941C7.24954 5.32941 4.93262 7.64618 4.93262 10.502C4.93262 13.3578 7.24954 15.6745 10.1052 15.6745C12.961 15.6745 15.2777 13.3578 15.2777 10.502C15.2777 7.64618 12.961 5.32941 10.1052 5.32941ZM10.1052 13.8573C8.25258 13.8573 6.74986 12.3547 6.74986 10.502C6.74986 8.64923 8.25258 7.14666 10.1052 7.14666C11.9579 7.14666 13.4605 8.64923 13.4605 10.502C13.4605 12.3547 11.9579 13.8573 10.1052 13.8573V13.8573Z" fill="#C4C4C4"/>
<path d="M16.6899 5.1249C16.6899 5.79175 16.1492 6.33246 15.4822 6.33246C14.8154 6.33246 14.2747 5.79175 14.2747 5.1249C14.2747 4.4579 14.8154 3.91735 15.4822 3.91735C16.1492 3.91735 16.6899 4.4579 16.6899 5.1249V5.1249Z" fill="#C4C4C4"/>
</g>
<defs>
<clipPath id="clip0">
<rect width="20.1356" height="20.1356" fill="white" transform="translate(0 0.43219)"/>
</clipPath>
</defs>
</svg>
