<svg width="126" height="126" viewBox="0 0 126 126" fill="none" xmlns="http://www.w3.org/2000/svg">
<path d="M62.4147 98C39.0553 98 17.4009 84.2802 7.17051 63.0145L7 62.5L7.34101 61.9855C17.4009 40.7198 39.0553 27 62.4147 27C85.9447 27 107.599 40.7198 117.659 61.9855L118 62.5L117.659 63.0145C107.599 84.2802 85.9447 98 62.4147 98ZM9.89862 62.5C19.788 82.5652 40.2488 95.4275 62.5853 95.4275C84.7512 95.4275 105.382 82.5652 115.272 62.5C105.382 42.4348 84.7512 29.5725 62.4147 29.5725C40.0783 29.5725 19.6175 42.4348 9.89862 62.5Z" fill="#231F20"/>
<path d="M62.4148 89.9396C77.4817 89.9396 89.6959 77.6545 89.6959 62.5C89.6959 47.3455 77.4817 35.0604 62.4148 35.0604C47.3478 35.0604 35.1337 47.3455 35.1337 62.5C35.1337 77.6545 47.3478 89.9396 62.4148 89.9396Z" stroke="#231F20" stroke-width="2.3" stroke-miterlimit="10"/>
<path d="M68.894 62.6715C64.6314 62.6715 61.2212 59.2415 61.2212 54.9541C61.2212 53.7536 61.5622 52.5531 62.0737 51.5241C56.2765 51.6956 51.5023 56.4976 51.5023 62.5C51.5023 68.5024 56.447 73.4758 62.4148 73.4758C68.3825 73.4758 73.3272 68.5024 73.3272 62.5C73.3272 62.157 73.3272 61.6425 73.3272 61.2995C72.1337 62.157 70.5991 62.6715 68.894 62.6715Z" fill="#231F20"/>
</svg>
