<svg width="126" height="126" viewBox="0 0 126 126" fill="none" xmlns="http://www.w3.org/2000/svg">
<path fill-rule="evenodd" clip-rule="evenodd" d="M42.7447 74.1335C42.677 74.0809 42.6096 74.0278 42.5435 73.9758L42.6563 74.0645L42.7447 74.1335ZM42.4313 73.8864C42.2537 73.7446 42.0779 73.601 41.9045 73.4559C41.7491 73.3262 41.595 73.195 41.4418 73.062L41.5498 73.1554C41.6672 73.2565 41.7854 73.3566 41.9045 73.4559C42.0417 73.5707 42.1799 73.6842 42.3194 73.7967L42.4313 73.8864ZM41.1826 72.8343C40.6287 72.3425 40.0947 71.8329 39.5803 71.3067L39.6794 71.4078C40.1631 71.8982 40.6645 72.3742 41.1826 72.8343L41.2271 72.8739L41.3342 72.9682C41.2833 72.9234 41.2323 72.8785 41.1826 72.8343ZM39.2855 71.0008C39.2532 70.967 39.2209 70.9328 39.1882 70.8982L39.0914 70.795C39.0591 70.7604 39.0268 70.7258 38.9951 70.6914L38.8994 70.5876C38.8677 70.5531 38.8362 70.5185 38.8041 70.4833L38.7093 70.3786C38.678 70.3434 38.6465 70.3084 38.6152 70.2734L38.7093 70.3786L38.8041 70.4833C38.8362 70.5185 38.8677 70.5531 38.8994 70.5876L38.9951 70.6914C39.0268 70.7258 39.0591 70.7604 39.0914 70.795L39.1882 70.8982C39.2528 70.9668 39.3177 71.035 39.3833 71.1032L39.2855 71.0008ZM38.4282 70.062C38.3969 70.0263 38.3657 69.9906 38.3354 69.9558L38.4282 70.062C38.4591 70.0972 38.4901 70.1326 38.5214 70.1679L38.4282 70.062ZM38.1515 69.7419C37.8265 69.361 37.5114 68.9729 37.2052 68.577L37.1764 68.5399L37.1489 68.504C37.0211 68.3377 36.8953 68.1706 36.7713 68.0024C36.6818 67.881 36.5932 67.7589 36.5057 67.6369C36.0707 67.0285 35.6579 66.4055 35.2688 65.7702L35.1959 65.6506C35.1048 65.5004 35.0151 65.3495 34.9267 65.1979C34.5689 64.5849 34.232 63.9601 33.9165 63.3239L33.8546 63.1986C33.7818 63.0502 33.7103 62.9011 33.6399 62.7518C33.7301 62.9432 33.8223 63.1338 33.9165 63.3239C34.232 63.9601 34.5689 64.5849 34.9267 65.1979C35.0387 65.3899 35.1529 65.5807 35.2688 65.7702C35.6579 66.4055 36.0707 67.0285 36.5057 67.6369C36.5932 67.7589 36.6818 67.881 36.7713 68.0024C36.8953 68.1706 37.0211 68.3377 37.1489 68.504L37.1764 68.5399L37.2052 68.577C37.5394 69.0094 37.8855 69.4335 38.2431 69.8491L38.1515 69.7419ZM32.8901 61.029C32.7865 60.7698 32.6862 60.509 32.5892 60.2465L32.5411 60.1152C32.5092 60.0278 32.4777 59.9402 32.4466 59.8521C32.431 59.8079 32.4154 59.7639 32.4001 59.7201L32.3543 59.5881C32.3392 59.5443 32.3242 59.5003 32.3092 59.4557L32.3543 59.5881L32.4001 59.7201L32.4466 59.8521L32.4935 59.9838C32.5094 60.0276 32.5252 60.0714 32.5411 60.1152L32.5892 60.2465C32.6699 60.4648 32.7529 60.6823 32.8386 60.8991L32.8901 61.029ZM32.009 58.5237L31.9685 58.3897C31.8612 58.0323 31.7603 57.673 31.6656 57.3111C31.7721 57.7177 31.8864 58.1219 32.009 58.5237ZM31.596 57.0396C31.4017 56.2696 31.2367 55.4907 31.1012 54.7047C31.2446 55.5366 31.4214 56.3608 31.6304 57.1754L31.596 57.0396ZM30.969 53.8703C30.9083 53.4518 30.8562 53.0313 30.8126 52.6099L30.7982 52.4692C30.7778 52.2625 30.7593 52.0553 30.743 51.8483L30.7365 51.7642L30.7286 51.6571C30.7242 51.5956 30.7197 51.5341 30.7157 51.4728L30.7071 51.34L30.705 51.3056C30.7 51.2226 30.6951 51.1396 30.6905 51.0568L30.6834 50.915L30.6807 50.8573C30.6682 50.5929 30.659 50.3281 30.6533 50.0625L30.6506 49.9201L30.6485 49.7777C30.649 49.8246 30.6498 49.8717 30.6506 49.9201L30.6533 50.0625C30.659 50.3281 30.6682 50.5929 30.6807 50.8573L30.6834 50.915L30.6905 51.0568C30.6951 51.1396 30.7 51.2226 30.705 51.3056L30.7071 51.34L30.7157 51.4728C30.7197 51.5341 30.7242 51.5956 30.7286 51.6571L30.7365 51.7642L30.743 51.8483C30.7593 52.0553 30.7778 52.2625 30.7982 52.4692L30.8126 52.6099C30.861 53.0786 30.9202 53.5454 30.9894 54.0096L30.969 53.8703ZM30.6461 49.4925C30.6458 49.3499 30.6461 49.2072 30.6477 49.0644L30.6465 49.2072C30.6458 49.3499 30.6458 49.4927 30.6469 49.6351L30.6461 49.4925ZM30.6519 48.7786C30.6552 48.6099 30.6598 48.4414 30.6657 48.2725C30.6682 48.2027 30.6709 48.1327 30.6738 48.063L30.6682 48.2062L30.6657 48.2725C30.6581 48.4892 30.6527 48.7058 30.6494 48.9214L30.6519 48.7786ZM30.695 47.6331C30.6896 47.7284 30.6848 47.8239 30.6804 47.9198L30.6873 47.7765L30.695 47.6331ZM30.7124 47.3462C30.7157 47.2984 30.7188 47.2505 30.7221 47.2027L30.7324 47.0591C30.7221 47.1998 30.7124 47.3404 30.704 47.4801L30.7124 47.3462ZM30.7805 46.4847C30.7893 46.3888 30.7987 46.2931 30.8085 46.1972C30.7939 46.3404 30.7803 46.4836 30.7674 46.6283L30.7805 46.4847ZM30.8393 45.9097C30.8445 45.8619 30.85 45.8139 30.8556 45.7658L30.8393 45.9097C30.8339 45.957 30.8287 46.0045 30.8235 46.0535L30.8393 45.9097ZM31.1087 44.0155C31.1679 43.6729 31.2326 43.3326 31.3028 42.9942C31.3549 42.7426 31.41 42.4924 31.4675 42.2443L31.4229 42.439C31.3812 42.6233 31.3412 42.8083 31.3028 42.9942C31.2192 43.3975 31.1431 43.8045 31.0749 44.2148C31.0637 44.2815 31.0528 44.348 31.0422 44.4147L31.0749 44.2148L31.1087 44.0155ZM31.8664 40.7058C31.8935 40.6117 31.9208 40.5177 31.9485 40.4252C31.9954 40.2669 32.0436 40.1091 32.0934 39.9498C32.172 39.6998 32.2532 39.4515 32.3382 39.2029L32.4022 39.0176C32.4452 38.8944 32.4888 38.7716 32.5334 38.6489L32.4673 38.8329C32.4456 38.8944 32.4239 38.9561 32.4022 39.0176L32.3382 39.2029C32.2748 39.3885 32.2131 39.5749 32.1529 39.7623L32.0934 39.9498C32.0438 40.1076 31.9956 40.2659 31.9485 40.4252C31.902 40.5817 31.8568 40.7387 31.8126 40.8963L31.8664 40.7058ZM32.6691 38.2824C32.7383 38.0991 32.809 37.9167 32.8807 37.7372L32.9533 37.5566C33.3252 36.6409 33.7381 35.7488 34.1901 34.8822C34.8054 33.7017 35.4924 32.5686 36.2434 31.4888L36.1352 31.6453C35.4258 32.6786 34.7753 33.7591 34.1901 34.8822C33.7087 35.8055 33.2712 36.7581 32.8807 37.7372C32.7846 37.9784 32.6912 38.2211 32.6009 38.4653L32.6691 38.2824ZM90.8981 37.1065C90.924 37.1674 90.9498 37.2285 90.9751 37.2896L91.0136 37.3819C91.0318 37.4261 91.0499 37.4703 91.068 37.5143L91.1217 37.6471C91.1533 37.7249 91.1842 37.8029 91.215 37.8813L91.2276 37.9132C91.2451 37.9578 91.2624 38.0024 91.2797 38.047C91.2584 37.9918 91.2371 37.9369 91.215 37.8813C91.1842 37.8029 91.1533 37.7249 91.1217 37.6471L91.068 37.5143C91.0374 37.4395 91.0067 37.3648 90.9751 37.2896C90.9498 37.2285 90.924 37.1674 90.8981 37.1065C90.8623 37.0223 90.8264 36.9383 90.7905 36.8557L90.847 36.9868L90.8981 37.1065ZM90.6754 36.5946C90.6371 36.5087 90.5985 36.4231 90.5595 36.3376C90.5333 36.2806 90.5072 36.2237 90.4805 36.1662C90.4267 36.0503 90.3723 35.9348 90.3168 35.8188L90.3779 35.9473C90.3981 35.9902 90.4182 36.0331 90.4384 36.0761L90.4805 36.1662C90.5072 36.2237 90.5333 36.2806 90.5595 36.3376C90.6181 36.4662 90.6761 36.5953 90.7332 36.7249L90.6754 36.5946ZM36.4625 31.1779C36.691 30.8578 36.9254 30.5422 37.1649 30.2322C37.6593 29.5919 38.1774 28.9724 38.7176 28.3742L38.7199 28.3717C38.1788 28.9705 37.6599 29.5908 37.1649 30.2322C36.8866 30.5926 36.6159 30.9596 36.3526 31.333L36.4625 31.1779ZM90.1546 35.4856C90.1254 35.4266 90.0962 35.3679 90.0664 35.3084L90.0026 35.1817C89.9812 35.1398 89.9599 35.098 89.938 35.0553C89.9163 35.0128 89.8944 34.9706 89.873 34.9292L89.8075 34.8036C89.78 34.7513 89.7526 34.699 89.7247 34.6467L89.6747 34.5532L89.6075 34.4284L89.5884 34.3937C89.5442 34.3122 89.4997 34.2309 89.4547 34.1502C89.2412 33.7657 89.02 33.3861 88.791 33.0116C88.6672 32.809 88.5411 32.6082 88.4131 32.4091C88.2882 32.215 88.1614 32.0225 88.0332 31.8324L87.9959 31.7771L87.9168 31.661C87.9556 31.7179 87.9944 31.775 88.0332 31.8324C88.1614 32.0225 88.2882 32.215 88.4131 32.4091C88.5411 32.6082 88.6672 32.809 88.791 33.0116C89.02 33.3861 89.2412 33.7657 89.4547 34.1502C89.4997 34.2309 89.5442 34.3122 89.5884 34.3937L89.6075 34.4284L89.6747 34.5532L89.7247 34.6467C89.7526 34.699 89.78 34.7513 89.8075 34.8036L89.873 34.9292L89.938 35.0553L90.0026 35.1817L90.0664 35.3084C90.0962 35.3679 90.1254 35.4266 90.1546 35.4856C90.1882 35.5538 90.2216 35.6222 90.2549 35.6908L90.1926 35.563L90.1546 35.4856ZM43.3143 24.1987C43.3909 24.1419 43.468 24.0852 43.5449 24.0292C43.7718 23.8638 44.0009 23.7016 44.2328 23.5415L44.0782 23.6488C43.8989 23.7739 43.7207 23.9009 43.5449 24.0292C43.4171 24.1224 43.2901 24.2164 43.1636 24.3113L43.3143 24.1987ZM44.5442 23.3297C44.7006 23.2248 44.8578 23.1213 45.0159 23.0192L44.858 23.1218C44.7006 23.2248 44.5438 23.3294 44.3881 23.4352L44.5442 23.3297ZM87.7569 31.4297C87.3883 30.9014 87.004 30.3852 86.6039 29.881C86.4519 29.6894 86.2976 29.4997 86.1411 29.3116L86.2305 29.4194C86.3564 29.572 86.4809 29.7259 86.6039 29.881C87.0324 30.4212 87.4437 30.9759 87.837 31.5451L87.7569 31.4297ZM45.4933 22.7169C46.2147 22.2692 46.9545 21.8501 47.7115 21.4613C47.9617 21.3327 48.2138 21.2072 48.4675 21.0852L48.2976 21.1677C48.101 21.2636 47.9054 21.3614 47.7115 21.4613C46.8988 21.8789 46.1055 22.3312 45.3336 22.8167L45.4933 22.7169ZM85.9609 29.0971C85.9307 29.0616 85.9005 29.0258 85.8702 28.9906L85.7791 28.8844L85.7307 28.8286C85.5992 28.677 85.4662 28.5266 85.3317 28.3772C85.2272 28.2614 85.1219 28.1463 85.016 28.0321C84.6096 27.5944 84.1908 27.1687 83.7598 26.7546C83.5369 26.5403 83.3109 26.3295 83.081 26.1216C81.7228 24.8917 80.2573 23.7808 78.6998 22.8028L78.8184 22.8776C80.3309 23.8367 81.7566 24.9222 83.081 26.1216C83.2761 26.298 83.4688 26.4771 83.6589 26.6579L83.7598 26.7546C84.1908 27.1687 84.6096 27.5944 85.016 28.0321C85.1219 28.1463 85.2272 28.2614 85.3317 28.3772C85.4662 28.5266 85.5992 28.677 85.7307 28.8286L85.7791 28.8844L85.8702 28.9906C85.9309 29.0614 85.9912 29.1327 86.0512 29.2042L85.9609 29.0971ZM49.1525 20.7662C50.399 20.2037 51.6853 19.7212 53.0044 19.3242C53.7165 19.1095 54.4381 18.9199 55.168 18.7561L55.2756 18.7321C55.3379 18.7185 55.4003 18.7048 55.4628 18.6914L55.5787 18.6668C55.6651 18.6487 55.7518 18.6308 55.8383 18.6132L56.0266 18.5759L56.2151 18.5398C56.467 18.4923 56.7198 18.4477 56.9728 18.4064L57.097 18.3866C58.0069 18.2417 58.928 18.1366 59.8579 18.073L59.6636 18.0868C58.7994 18.1514 57.9429 18.2517 57.097 18.3866L56.9728 18.4064C56.7198 18.4477 56.467 18.4923 56.2151 18.5398L56.0266 18.5759L55.8531 18.6103C55.7614 18.6287 55.6699 18.6476 55.5787 18.6668L55.4628 18.6914C55.4003 18.7048 55.3379 18.7185 55.2756 18.7321L55.168 18.7561C54.4381 18.9199 53.7165 19.1095 53.0044 19.3242C51.625 19.7395 50.281 20.2483 48.9806 20.8444L49.1525 20.7662ZM60.2472 18.0488C60.3122 18.0451 60.3771 18.0417 60.4423 18.0384L60.2472 18.0488C60.1821 18.0524 60.1169 18.0563 60.0523 18.0603L60.2472 18.0488ZM78.4617 22.6549C78.033 22.3908 77.5973 22.137 77.1552 21.8935C76.8696 21.7363 76.5813 21.5833 76.2904 21.4346C76.0834 21.3289 75.8753 21.2255 75.6662 21.1244L75.6268 21.1054L75.5769 21.0816C75.0177 20.8135 74.4494 20.5618 73.8725 20.3264L73.8189 20.3046L73.7885 20.2923C73.2976 20.0936 72.8004 19.907 72.2979 19.7331L72.2239 19.7074C72.1791 19.6922 72.1342 19.6768 72.0892 19.6614L71.9931 19.6292C71.9312 19.6084 71.8694 19.5878 71.8071 19.5675C71.5402 19.4798 71.2717 19.3959 71.0021 19.3153L71.1389 19.3565C71.3622 19.4243 71.5848 19.4944 71.8071 19.5675C71.8697 19.588 71.9322 19.6088 71.9931 19.6292L72.0892 19.6614C72.1342 19.6768 72.1791 19.6922 72.2239 19.7074L72.2979 19.7331C72.8004 19.907 73.2976 20.0936 73.7885 20.2923L73.8189 20.3046L73.8725 20.3264C74.4494 20.5618 75.0177 20.8135 75.5769 21.0816L75.6268 21.1054L75.6662 21.1244C75.8759 21.2259 76.0844 21.3293 76.2904 21.4346C76.5813 21.5833 76.8696 21.7363 77.1552 21.8935C77.6383 22.1596 78.1139 22.4381 78.581 22.7285L78.4617 22.6549ZM70.7277 19.2348C70.6358 19.2083 70.544 19.1824 70.4521 19.1566L70.5901 19.1954C70.6816 19.2214 70.7728 19.2477 70.8649 19.2748L70.7277 19.2348ZM70.1758 19.0811C69.9117 19.01 69.6464 18.9424 69.3796 18.8782L69.3406 18.8687L69.2691 18.8518C69.1531 18.8242 69.0366 18.7973 68.92 18.7709C68.6388 18.7077 68.3561 18.6481 68.0721 18.5924L68.2139 18.6207C68.4499 18.6681 68.6849 18.7181 68.92 18.7709L69.0604 18.803C69.1071 18.8138 69.1538 18.8247 69.2007 18.8355L69.3406 18.8687L69.3796 18.8782C69.6 18.9314 69.8197 18.9867 70.0372 19.044L70.1758 19.0811ZM67.7877 18.538C67.6451 18.5113 67.5023 18.4856 67.3596 18.461L67.5025 18.4859C67.6459 18.5115 67.7891 18.5378 67.9301 18.5649L67.7877 18.538ZM67.2164 18.4366C67.1207 18.4206 67.025 18.405 66.9295 18.3899L67.073 18.4129L67.2164 18.4366ZM60.8935 18.0194C61.3197 18.0044 61.7475 17.998 62.1766 18.0005L62.2077 18.0007L62.3201 18.0019C62.7147 18.0059 63.1105 18.0176 63.5073 18.0369C63.6868 18.0455 63.8667 18.0557 64.0468 18.0676C64.2589 18.0814 64.4715 18.0976 64.6842 18.1158C64.8546 18.1306 65.0249 18.1466 65.1954 18.1639C65.3283 18.1775 65.4613 18.1921 65.5943 18.2073L65.7842 18.2298L65.9819 18.2544C66.2484 18.2884 66.5169 18.3261 66.7855 18.3674L66.5851 18.3372C66.3839 18.3076 66.1831 18.2801 65.9819 18.2544L65.7842 18.2298L65.5943 18.2073C65.4613 18.1921 65.3283 18.1775 65.1954 18.1639C65.0249 18.1466 64.8546 18.1306 64.6842 18.1158C64.4722 18.0978 64.2605 18.0816 64.0468 18.0676C63.8667 18.0557 63.6868 18.0455 63.5073 18.0369C63.1097 18.0176 62.7131 18.0059 62.3201 18.0019L62.2077 18.0007L62.1766 18.0005C61.7467 17.998 61.3184 18.0044 60.8935 18.0194C60.808 18.0224 60.7224 18.0257 60.6375 18.0294L60.8329 18.0215L60.8935 18.0194Z" fill="white"/>
<path d="M61.5002 108.725L69.3614 91.9416C69.3614 91.9416 70.2968 92.0817 71.4585 92.093C72.2887 92.1011 73.1171 92.0961 73.9394 92.08C75.4087 92.0511 76.8586 91.9866 78.2647 91.8972C86.6769 91.3628 93.5195 89.9392 93.5195 89.9392L92.5949 74.152L98.5787 72.7271L92.313 41.2033C92.2292 40.8928 92.1408 40.5842 92.048 40.2779L92.0324 40.2264L92.0053 40.1383C91.8581 39.6602 91.7 39.1873 91.5313 38.7198L91.4821 38.5845C91.4327 38.4496 91.3823 38.315 91.3312 38.1809L91.2797 38.047M28 108.725L45.2438 76.4261L45.132 75.8194C44.7415 75.57 44.3578 75.3129 43.9807 75.0477L43.9279 75.0106C43.8885 74.9827 43.8491 74.9549 43.8099 74.927L43.7292 74.8691C43.5212 74.72 43.3156 74.5688 43.1121 74.4153L42.9976 74.3282C42.9128 74.2636 42.8287 74.1989 42.7447 74.1335M42.7447 74.1335C42.677 74.0809 42.6096 74.0278 42.5435 73.9758L42.6563 74.0645L42.7447 74.1335ZM41.9045 73.4559C42.0779 73.601 42.2537 73.7446 42.4313 73.8864L42.3194 73.7967C42.1799 73.6842 42.0417 73.5707 41.9045 73.4559ZM41.9045 73.4559C41.7491 73.3262 41.595 73.195 41.4418 73.062L41.5498 73.1554C41.6672 73.2565 41.7854 73.3566 41.9045 73.4559ZM41.1826 72.8343C40.6287 72.3425 40.0947 71.8329 39.5803 71.3067L39.6794 71.4078C40.1631 71.8982 40.6645 72.3742 41.1826 72.8343ZM41.1826 72.8343L41.2271 72.8739L41.3342 72.9682C41.2833 72.9234 41.2323 72.8785 41.1826 72.8343ZM39.1882 70.8982C39.2209 70.9328 39.2532 70.967 39.2855 71.0008L39.3833 71.1032C39.3177 71.035 39.2528 70.9668 39.1882 70.8982ZM39.1882 70.8982L39.0914 70.795C39.0591 70.7604 39.0268 70.7258 38.9951 70.6914L38.8994 70.5876C38.8677 70.5531 38.8362 70.5185 38.8041 70.4833L38.7093 70.3786M38.7093 70.3786C38.678 70.3434 38.6465 70.3084 38.6152 70.2734L38.7093 70.3786ZM38.4282 70.062C38.3969 70.0263 38.3657 69.9906 38.3354 69.9558L38.4282 70.062ZM38.4282 70.062C38.4591 70.0972 38.4901 70.1326 38.5214 70.1679L38.4282 70.062ZM37.2052 68.577C37.5114 68.9729 37.8265 69.361 38.1515 69.7419L38.2431 69.8491C37.8855 69.4335 37.5394 69.0094 37.2052 68.577ZM37.2052 68.577L37.1764 68.5399L37.1489 68.504C37.0211 68.3377 36.8953 68.1706 36.7713 68.0024C36.6818 67.881 36.5932 67.7589 36.5057 67.6369C36.0707 67.0285 35.6579 66.4055 35.2688 65.7702M35.2688 65.7702L35.1959 65.6506C35.1048 65.5004 35.0151 65.3495 34.9267 65.1979M35.2688 65.7702C35.1529 65.5807 35.0387 65.3899 34.9267 65.1979M34.9267 65.1979C34.5689 64.5849 34.232 63.9601 33.9165 63.3239M33.9165 63.3239L33.8546 63.1986C33.7818 63.0502 33.7103 62.9011 33.6399 62.7518M33.9165 63.3239C33.8223 63.1338 33.7301 62.9432 33.6399 62.7518M33.6399 62.7518C33.3928 62.2273 33.1603 61.6962 32.9424 61.1585M32.5892 60.2465C32.6862 60.509 32.7865 60.7698 32.8901 61.029L32.8386 60.8991C32.7529 60.6823 32.6699 60.4648 32.5892 60.2465ZM32.5892 60.2465L32.5411 60.1152M32.5411 60.1152C32.5092 60.0278 32.4777 59.9402 32.4466 59.8521M32.5411 60.1152C32.5252 60.0714 32.5094 60.0276 32.4935 59.9838L32.4466 59.8521M32.4466 59.8521C32.431 59.8079 32.4154 59.7639 32.4001 59.7201M32.4466 59.8521L32.4001 59.7201M32.4001 59.7201L32.3543 59.5881M32.3543 59.5881C32.3392 59.5443 32.3242 59.5003 32.3092 59.4557L32.3543 59.5881ZM32.2558 59.2974C32.1702 59.0404 32.088 58.7825 32.009 58.5237M32.009 58.5237L31.9685 58.3897C31.8612 58.0323 31.7603 57.6729 31.6656 57.3111C31.7721 57.7177 31.8864 58.1219 32.009 58.5237ZM31.0105 54.149L31.0322 54.2881M30.8126 52.6099C30.8562 53.0313 30.9083 53.4518 30.969 53.8703L30.9894 54.0096C30.9202 53.5454 30.861 53.0786 30.8126 52.6099ZM30.8126 52.6099L30.7982 52.4692C30.7778 52.2624 30.7593 52.0553 30.743 51.8483L30.7365 51.7642L30.7286 51.6571C30.7242 51.5956 30.7197 51.5341 30.7157 51.4728L30.7071 51.34L30.705 51.3056C30.7 51.2226 30.6951 51.1396 30.6905 51.0568L30.6834 50.915L30.6807 50.8573C30.6682 50.5929 30.659 50.3281 30.6533 50.0625L30.6506 49.9201M30.6506 49.9201L30.6485 49.7777C30.649 49.8246 30.6498 49.8717 30.6506 49.9201ZM30.6657 48.2725C30.6598 48.4414 30.6552 48.6099 30.6519 48.7786L30.6494 48.9214C30.6527 48.7058 30.6581 48.4892 30.6657 48.2725ZM30.6657 48.2725C30.6682 48.2027 30.6709 48.1327 30.6738 48.063L30.6682 48.2062L30.6657 48.2725ZM30.7551 46.772L30.7434 46.9155M30.8393 45.9097C30.8445 45.8619 30.85 45.8139 30.8556 45.7658L30.8393 45.9097ZM30.8393 45.9097C30.8339 45.957 30.8287 46.0045 30.8235 46.0535L30.8393 45.9097ZM30.919 45.2569C30.9409 45.0905 30.9644 44.9247 30.989 44.7588M31.3028 42.9942C31.2326 43.3326 31.1679 43.6729 31.1087 44.0155L31.0749 44.2148M31.3028 42.9942C31.3549 42.7426 31.41 42.4924 31.4675 42.2443L31.4229 42.439C31.3812 42.6233 31.3412 42.8083 31.3028 42.9942ZM31.3028 42.9942C31.2192 43.3975 31.1431 43.8045 31.0749 44.2148M31.0749 44.2148C31.0637 44.2815 31.0528 44.348 31.0422 44.4147L31.0749 44.2148ZM31.5839 41.7616C31.6402 41.5362 31.6986 41.3117 31.7598 41.0873M31.9485 40.4252C31.9208 40.5177 31.8935 40.6117 31.8664 40.7058L31.8126 40.8963C31.8568 40.7387 31.902 40.5817 31.9485 40.4252ZM31.9485 40.4252C31.9954 40.2669 32.0436 40.1091 32.0934 39.9498M31.9485 40.4252C31.9956 40.2659 32.0438 40.1076 32.0934 39.9498M32.0934 39.9498C32.172 39.6998 32.2532 39.4515 32.3382 39.2029M32.0934 39.9498L32.1529 39.7623C32.2131 39.5749 32.2748 39.3885 32.3382 39.2029M32.3382 39.2029L32.4022 39.0176M32.4022 39.0176C32.4452 38.8944 32.4888 38.7716 32.5334 38.6489L32.4673 38.8329C32.4456 38.8944 32.4239 38.9561 32.4022 39.0176ZM32.8807 37.7372C32.809 37.9167 32.7383 38.0991 32.6691 38.2824L32.6009 38.4653C32.6912 38.2211 32.7846 37.9784 32.8807 37.7372ZM32.8807 37.7372L32.9533 37.5566C33.3252 36.6409 33.7381 35.7488 34.1901 34.8822M32.8807 37.7372C33.2712 36.7581 33.7087 35.8055 34.1901 34.8822M34.1901 34.8822C34.8054 33.7017 35.4924 32.5686 36.2434 31.4888L36.1352 31.6453C35.4258 32.6786 34.7753 33.7591 34.1901 34.8822ZM90.8981 37.1065C90.924 37.1674 90.9498 37.2285 90.9751 37.2896M90.8981 37.1065C90.8623 37.0223 90.8264 36.9383 90.7905 36.8557L90.847 36.9868L90.8981 37.1065ZM90.9751 37.2896L91.0136 37.3819C91.0318 37.4261 91.0499 37.4703 91.068 37.5143M90.9751 37.2896C91.0067 37.3648 91.0374 37.4395 91.068 37.5143M91.068 37.5143L91.1217 37.6471C91.1533 37.7249 91.1842 37.8029 91.215 37.8813M91.215 37.8813L91.2276 37.9132C91.2451 37.9578 91.2624 38.0024 91.2797 38.047M91.215 37.8813C91.2371 37.9369 91.2584 37.9918 91.2797 38.047M90.5595 36.3376C90.5985 36.4231 90.6371 36.5087 90.6754 36.5946L90.7332 36.7249C90.6761 36.5953 90.6181 36.4662 90.5595 36.3376ZM90.5595 36.3376C90.5333 36.2806 90.5072 36.2237 90.4805 36.1662M90.4805 36.1662C90.4267 36.0503 90.3723 35.9348 90.3168 35.8188L90.3779 35.9473C90.3981 35.9902 90.4182 36.0331 90.4384 36.0761L90.4805 36.1662ZM37.1649 30.2322C36.9254 30.5422 36.691 30.8578 36.4625 31.1779L36.3526 31.333C36.6159 30.9596 36.8866 30.5926 37.1649 30.2322ZM37.1649 30.2322C37.6593 29.5919 38.1774 28.9724 38.7176 28.3742L38.7199 28.3717M37.1649 30.2322C37.6599 29.5908 38.1788 28.9705 38.7199 28.3717M38.7199 28.3717C39.2263 27.8115 39.752 27.2704 40.2951 26.7498M90.1546 35.4856C90.1254 35.4266 90.0962 35.3679 90.0664 35.3084L90.0026 35.1817M90.1546 35.4856C90.1882 35.5538 90.2216 35.6222 90.2549 35.6908L90.1926 35.563L90.1546 35.4856ZM90.0026 35.1817C89.9812 35.1398 89.9599 35.098 89.938 35.0553M90.0026 35.1817L89.938 35.0553M89.938 35.0553C89.9163 35.0128 89.8944 34.9705 89.873 34.9292M89.938 35.0553L89.873 34.9292M89.873 34.9292L89.8075 34.8036C89.78 34.7513 89.7526 34.699 89.7247 34.6467L89.6747 34.5532L89.6075 34.4284L89.5884 34.3937C89.5442 34.3122 89.4997 34.2309 89.4547 34.1502C89.2412 33.7657 89.02 33.3861 88.791 33.0116C88.6672 32.809 88.5411 32.6082 88.4131 32.4091C88.2882 32.215 88.1614 32.0225 88.0332 31.8324M88.0332 31.8324L87.9959 31.7771L87.9168 31.661C87.9556 31.7179 87.9944 31.775 88.0332 31.8324ZM40.6132 26.4492C41.3799 25.7344 42.1814 25.0585 43.0135 24.4251M43.5449 24.0292C43.468 24.0852 43.3909 24.1419 43.3143 24.1987L43.1636 24.3113C43.2901 24.2164 43.4171 24.1224 43.5449 24.0292ZM43.5449 24.0292C43.7718 23.8638 44.0009 23.7016 44.2328 23.5415L44.0782 23.6488C43.8989 23.7739 43.7207 23.9009 43.5449 24.0292ZM86.6039 29.881C87.004 30.3852 87.3883 30.9014 87.7569 31.4297L87.837 31.5451C87.4437 30.9759 87.0324 30.4212 86.6039 29.881ZM86.6039 29.881C86.4519 29.6894 86.2976 29.4997 86.1411 29.3116L86.2305 29.4194C86.3564 29.572 86.4809 29.7259 86.6039 29.881ZM47.7115 21.4613C46.9545 21.8501 46.2147 22.2692 45.4933 22.7169L45.3336 22.8167C46.1055 22.3312 46.8988 21.8789 47.7115 21.4613ZM47.7115 21.4613C47.9617 21.3327 48.2138 21.2072 48.4675 21.0852L48.2976 21.1677C48.101 21.2636 47.9054 21.3614 47.7115 21.4613ZM85.8702 28.9906C85.9005 29.0258 85.9307 29.0616 85.9609 29.0971L86.0512 29.2042C85.9912 29.1327 85.9309 29.0614 85.8702 28.9906ZM85.8702 28.9906L85.7791 28.8844L85.7307 28.8286C85.5992 28.677 85.4662 28.5266 85.3317 28.3772C85.2272 28.2614 85.1219 28.1463 85.016 28.0321C84.6096 27.5944 84.1908 27.1687 83.7598 26.7546M83.7598 26.7546C83.5369 26.5403 83.3109 26.3295 83.081 26.1216M83.7598 26.7546L83.6589 26.6579C83.4689 26.4771 83.2761 26.298 83.081 26.1216M83.081 26.1216C81.7228 24.8917 80.2573 23.7808 78.6998 22.8028L78.8184 22.8776C80.3309 23.8367 81.7566 24.9222 83.081 26.1216ZM53.0044 19.3242C51.6853 19.7212 50.399 20.2037 49.1525 20.7662L48.9806 20.8444C50.281 20.2483 51.625 19.7395 53.0044 19.3242ZM53.0044 19.3242C53.7165 19.1095 54.4381 18.9199 55.168 18.7561L55.2756 18.7321C55.3379 18.7185 55.4003 18.7048 55.4628 18.6914L55.5787 18.6668M55.5787 18.6668C55.6651 18.6487 55.7518 18.6308 55.8383 18.6132L56.0266 18.5759M55.5787 18.6668C55.6699 18.6476 55.7614 18.6287 55.8531 18.6103L56.0266 18.5759M56.0266 18.5759L56.2151 18.5398C56.467 18.4923 56.7198 18.4477 56.9728 18.4064L57.097 18.3866M57.097 18.3866C58.0069 18.2417 58.928 18.1366 59.8579 18.073L59.6636 18.0868C58.7994 18.1514 57.9429 18.2517 57.097 18.3866ZM60.2472 18.0488C60.3122 18.0451 60.3771 18.0417 60.4423 18.0384L60.2472 18.0488ZM60.2472 18.0488C60.1821 18.0524 60.1169 18.0563 60.0523 18.0603L60.2472 18.0488ZM77.1552 21.8935C77.5973 22.137 78.033 22.3908 78.4617 22.6549L78.581 22.7285C78.1139 22.4381 77.6383 22.1596 77.1552 21.8935ZM77.1552 21.8935C76.8696 21.7363 76.5813 21.5833 76.2904 21.4346M76.2904 21.4346C76.0834 21.3289 75.8753 21.2255 75.6662 21.1244M76.2904 21.4346C76.0844 21.3293 75.8759 21.2259 75.6662 21.1244M75.6662 21.1244L75.6268 21.1054L75.5769 21.0816C75.0177 20.8135 74.4494 20.5618 73.8725 20.3264L73.8189 20.3046L73.7885 20.2923C73.2976 20.0936 72.8004 19.907 72.2979 19.7331L72.2239 19.7074C72.1791 19.6922 72.1342 19.6768 72.0892 19.6614L71.9931 19.6292M71.9931 19.6292C71.9312 19.6084 71.8694 19.5878 71.8071 19.5675M71.9931 19.6292C71.9322 19.6088 71.8697 19.588 71.8071 19.5675M71.8071 19.5675C71.5402 19.4798 71.2717 19.3959 71.0021 19.3153L71.1389 19.3565C71.3622 19.4243 71.5848 19.4944 71.8071 19.5675ZM69.3796 18.8782C69.6464 18.9424 69.9117 19.01 70.1758 19.0811L70.0372 19.044C69.8197 18.9867 69.6 18.9314 69.3796 18.8782ZM69.3796 18.8782L69.3406 18.8687M69.3406 18.8687L69.2691 18.8518C69.1531 18.8242 69.0366 18.7973 68.92 18.7709M69.3406 18.8687L69.2007 18.8355C69.1538 18.8247 69.1071 18.8138 69.0604 18.803L68.92 18.7709M68.92 18.7709C68.6388 18.7077 68.3561 18.6481 68.0721 18.5924L68.2139 18.6207C68.4499 18.6681 68.6849 18.7181 68.92 18.7709ZM60.8935 18.0194C61.3197 18.0044 61.7475 17.998 62.1766 18.0005M60.8935 18.0194C61.3184 18.0044 61.7467 17.998 62.1766 18.0005M60.8935 18.0194C60.808 18.0224 60.7224 18.0257 60.6375 18.0294L60.8329 18.0215L60.8935 18.0194ZM62.1766 18.0005L62.2077 18.0007L62.3201 18.0019M62.3201 18.0019C62.7147 18.0059 63.1105 18.0176 63.5073 18.0369M62.3201 18.0019C62.7131 18.0059 63.1097 18.0176 63.5073 18.0369M63.5073 18.0369C63.6868 18.0455 63.8667 18.0557 64.0468 18.0676M64.0468 18.0676C64.2589 18.0814 64.4715 18.0976 64.6842 18.1158M64.0468 18.0676C64.2605 18.0816 64.4722 18.0978 64.6842 18.1158M64.6842 18.1158C64.8546 18.1306 65.0249 18.1466 65.1954 18.1639C65.3283 18.1775 65.4613 18.1921 65.5943 18.2073L65.7842 18.2298L65.9819 18.2544M65.9819 18.2544C66.2484 18.2884 66.5169 18.3261 66.7855 18.3674L66.5851 18.3372C66.3839 18.3076 66.1831 18.2801 65.9819 18.2544ZM31.596 57.0396C31.4017 56.2696 31.2367 55.4907 31.1012 54.7047C31.2446 55.5366 31.4214 56.3608 31.6304 57.1754L31.596 57.0396ZM30.6461 49.4925C30.6458 49.3499 30.6461 49.2072 30.6477 49.0644L30.6465 49.2072C30.6458 49.3499 30.6458 49.4927 30.6469 49.6351L30.6461 49.4925ZM30.695 47.6331C30.6896 47.7284 30.6848 47.8239 30.6804 47.9198L30.6873 47.7765L30.695 47.6331ZM30.7124 47.3462C30.7157 47.2984 30.7188 47.2505 30.7221 47.2027L30.7324 47.0591C30.7221 47.1998 30.7124 47.3404 30.704 47.4801L30.7124 47.3462ZM30.7805 46.4847C30.7893 46.3888 30.7987 46.2931 30.8085 46.1972C30.7939 46.3404 30.7803 46.4836 30.7674 46.6283L30.7805 46.4847ZM44.5442 23.3297C44.7006 23.2248 44.8578 23.1212 45.0159 23.0192L44.858 23.1218C44.7006 23.2248 44.5438 23.3294 44.3881 23.4352L44.5442 23.3297ZM70.7277 19.2348C70.6358 19.2083 70.544 19.1824 70.4521 19.1566L70.5901 19.1954C70.6816 19.2214 70.7728 19.2477 70.8649 19.2748L70.7277 19.2348ZM67.7877 18.538C67.6451 18.5113 67.5023 18.4856 67.3596 18.461L67.5025 18.4859C67.6459 18.5115 67.7891 18.5378 67.9301 18.5649L67.7877 18.538ZM67.2164 18.4366C67.1207 18.4206 67.025 18.405 66.9295 18.3899L67.073 18.4129L67.2164 18.4366Z" stroke="black" stroke-width="2.3" stroke-miterlimit="1.5" stroke-linecap="round" stroke-linejoin="round"/>
</svg>
